<svg width="201" height="57" xmlns="http://www.w3.org/2000/svg"><g fill="none" fill-rule="evenodd"><path fill="#0FF" d="M21 0h180v57H9z"/><path fill="#F0F" d="M12 0h2L2 57H0z"/><path fill="#FC0" d="M15 0h2L5 57H3z"/><path fill="#0FF" d="M18 0h2L8 57H6z"/><path d="M28.632 10.158h1.59l8.268 36.676h.106l23.85-36.676h1.696L56.086 48h-1.113l7.738-36.199-.106-.106L39.073 48h-1.378l-8.162-36.305h-.106L21.742 48h-1.06l7.95-37.842zM87.833 46.94L87.568 48H62.711l8.056-37.842h24.009l-.212 1.06H71.615l-3.551 16.536h21.412l-.212 1.06H67.799L63.93 46.94h23.903zM90.377 48l8.056-37.842h1.06L91.384 48h-1.007zm34.927 0l-18.232-36.623h-.106L99.281 48h-1.06l8.003-37.842h1.431l18.232 36.623h.106l7.738-36.623h1.113L126.735 48h-1.431zm11.766-36.782l.212-1.06h28.461l-.212 1.06h-13.674L144.013 48H142.9l7.844-36.782H137.07zm47.965 35.722L184.77 48h-24.857l8.056-37.842h24.009l-.212 1.06h-22.949l-3.551 16.536h21.412l-.212 1.06h-21.465l-3.869 18.126h23.903z" fill="#333" fill-rule="nonzero"/></g></svg>