<?xml version="1.0" standalone="no"?>
<!DOCTYPE svg PUBLIC "-//W3C//DTD SVG 20010904//EN"
 "http://www.w3.org/TR/2001/REC-SVG-20010904/DTD/svg10.dtd">
<svg version="1.0" xmlns="http://www.w3.org/2000/svg"
 width="700.000000pt" height="700.000000pt" viewBox="0 0 700.000000 700.000000"
 preserveAspectRatio="xMidYMid meet">
<metadata>
Created by potrace 1.11, written by Peter Selinger 2001-2013
</metadata>
<g transform="translate(0.000000,700.000000) scale(0.100000,-0.100000)"
fill="#000000" stroke="none">
<path d="M1477 6993 c-2 -5 -8 -26 -12 -48 -5 -22 -9 -44 -11 -50 -1 -5 -5
-26 -9 -45 -3 -19 -11 -55 -16 -80 -6 -25 -12 -54 -15 -64 -2 -11 -13 -65 -25
-120 -11 -56 -23 -110 -25 -121 -2 -11 -28 -135 -58 -275 -30 -140 -57 -266
-59 -280 -8 -41 -37 -179 -57 -270 -10 -47 -22 -100 -25 -119 -3 -19 -7 -37
-9 -40 -2 -3 -7 -22 -10 -41 -3 -19 -19 -98 -35 -175 -17 -77 -32 -151 -35
-165 -14 -78 -26 -132 -30 -138 -2 -4 -7 -28 -11 -52 -3 -25 -10 -61 -15 -80
-5 -19 -11 -46 -14 -60 -2 -14 -14 -70 -26 -125 -12 -55 -24 -111 -27 -125 -2
-14 -18 -88 -34 -165 -39 -183 -37 -177 -43 -200 -6 -27 -56 -265 -62 -292 -8
-44 -13 -68 -19 -93 -5 -24 -31 -150 -41 -200 -3 -14 -7 -33 -10 -42 -3 -9 -7
-27 -9 -40 -4 -20 -13 -61 -29 -143 -3 -11 -23 -105 -45 -210 -22 -104 -42
-201 -45 -215 -3 -14 -19 -90 -36 -170 -17 -80 -47 -221 -66 -315 -20 -93 -37
-177 -39 -185 -5 -19 -82 -386 -89 -420 -2 -14 -20 -100 -40 -192 -20 -92 -38
-178 -40 -190 -2 -13 -25 -120 -50 -238 -26 -118 -48 -224 -51 -235 -16 -78
-59 -287 -89 -427 -71 -335 -105 -494 -110 -521 l-5 -27 123 0 123 0 18 83
c10 45 20 90 22 100 3 16 31 148 123 587 112 531 162 767 166 788 2 12 6 32 9
45 25 120 37 177 41 202 3 17 14 67 25 112 10 44 21 94 23 110 3 15 19 91 35
168 16 77 32 151 35 165 2 14 21 102 41 195 20 94 49 235 66 315 17 80 32 152
34 160 6 26 45 214 50 240 3 14 7 34 9 45 3 11 17 76 31 145 15 69 28 132 30
140 2 8 13 62 25 120 11 58 34 166 50 240 16 74 42 199 59 277 17 77 33 154
35 170 3 15 19 93 36 173 17 80 51 240 75 355 47 224 88 418 184 875 33 157
62 297 65 313 3 15 7 35 10 45 3 9 7 28 10 42 3 14 19 93 36 175 17 83 32 159
34 170 3 11 12 54 21 95 9 41 18 84 21 95 2 11 6 29 8 40 12 58 38 182 41 198
4 15 -7 17 -115 17 -65 0 -121 -3 -123 -7z"/>
<path d="M1776 6670 c-38 -181 -68 -331 -67 -332 1 -2 -2 -15 -7 -29 -6 -14
-13 -41 -16 -60 -3 -19 -12 -63 -20 -99 -8 -36 -18 -81 -21 -100 -3 -19 -12
-63 -20 -96 -8 -34 -16 -73 -19 -85 -2 -13 -23 -112 -46 -219 -23 -107 -43
-205 -46 -217 -2 -12 -29 -140 -60 -285 -98 -469 -124 -593 -129 -613 -9 -44
-86 -406 -105 -495 -11 -52 -23 -108 -26 -125 -2 -16 -7 -38 -10 -47 -3 -9 -7
-27 -9 -40 -5 -23 -32 -157 -39 -193 -44 -206 -121 -571 -136 -640 -38 -179
-89 -421 -95 -455 -3 -19 -8 -42 -10 -50 -3 -8 -18 -80 -35 -160 -17 -80 -33
-152 -35 -160 -5 -22 -86 -411 -91 -440 -3 -14 -14 -67 -25 -119 -12 -51 -22
-103 -25 -114 -2 -12 -15 -73 -29 -136 -13 -64 -26 -127 -29 -141 -2 -14 -19
-90 -36 -170 -17 -80 -34 -156 -36 -170 -2 -14 -9 -45 -14 -70 -6 -25 -13 -55
-15 -68 -3 -12 -7 -32 -10 -45 -11 -52 -26 -125 -31 -153 -3 -16 -14 -69 -25
-119 -44 -197 -49 -224 -69 -319 -11 -55 -20 -101 -20 -103 0 -1 56 -3 124 -3
l123 0 18 87 c9 49 19 95 20 103 39 179 159 748 169 800 2 14 16 79 31 145 21
99 49 232 69 331 3 10 25 118 51 239 26 121 49 230 51 243 10 52 234 1117 264
1257 11 50 22 101 24 115 2 14 27 131 55 260 27 129 52 246 55 260 6 32 51
248 115 550 28 129 52 246 55 260 3 14 7 36 10 50 9 41 26 123 31 150 3 14 14
66 25 115 11 50 22 101 24 115 2 14 11 57 20 95 10 39 19 86 22 105 3 19 9 51
14 70 5 19 12 53 16 75 3 22 8 43 10 46 2 3 6 20 9 38 7 41 82 401 95 456 9
40 95 448 104 495 5 27 37 179 84 403 l30 137 -122 0 -121 0 -69 -330z"/>
<path d="M2142 6658 c-40 -189 -74 -352 -76 -363 -3 -11 -20 -94 -40 -185 -93
-436 -135 -638 -141 -670 -3 -19 -12 -62 -20 -95 -16 -69 -62 -288 -69 -325
-2 -14 -11 -56 -20 -95 -10 -38 -19 -86 -22 -105 -3 -19 -9 -51 -14 -70 -8
-30 -17 -74 -54 -256 -4 -19 -39 -181 -111 -519 -20 -93 -38 -179 -41 -190 -2
-11 -15 -76 -29 -145 -15 -69 -28 -136 -31 -150 -3 -14 -7 -33 -10 -42 -3 -10
-8 -30 -10 -45 -3 -16 -19 -91 -35 -168 -36 -165 -35 -164 -50 -235 -6 -30
-12 -59 -14 -65 -1 -9 -10 -50 -21 -105 -1 -8 -10 -49 -19 -90 -9 -41 -18 -86
-21 -100 -2 -14 -9 -45 -14 -70 -6 -25 -12 -54 -14 -65 -2 -11 -20 -94 -39
-185 -20 -91 -38 -176 -41 -190 -2 -14 -27 -133 -56 -265 -28 -132 -60 -283
-71 -335 -16 -80 -31 -152 -64 -305 -12 -56 -77 -363 -81 -385 -3 -14 -20 -97
-39 -185 -19 -88 -45 -214 -59 -280 -14 -66 -37 -174 -51 -240 -14 -65 -25
-123 -25 -127 0 -10 237 -11 243 0 4 5 67 297 93 427 3 16 13 63 19 95 1 3 4
19 8 35 4 17 9 39 11 50 2 11 12 56 21 100 9 44 18 89 21 100 12 65 146 697
154 730 8 33 25 116 64 305 3 14 7 36 10 50 3 14 10 48 16 75 16 75 16 78 55
260 19 94 45 215 56 270 11 55 22 107 24 115 2 8 36 168 75 355 40 187 73 345
74 350 1 6 5 24 9 40 8 36 125 598 168 805 16 80 34 163 40 185 8 34 21 98 75
363 3 13 16 76 30 140 14 64 28 131 31 147 2 17 11 55 18 85 7 30 16 69 19 85
2 17 23 118 46 225 23 107 43 204 45 215 3 11 11 52 19 90 54 255 66 313 70
338 3 15 7 35 10 45 3 9 7 28 10 42 3 14 12 61 21 105 9 44 19 91 21 105 3 14
7 32 9 40 2 8 7 29 10 45 3 17 31 153 63 303 l58 272 -121 0 -121 0 -72 -342z"/>
<path d="M2582 6993 c1 -5 -1 -21 -5 -38 -4 -16 -9 -39 -11 -50 -2 -11 -29
-137 -60 -280 -46 -215 -124 -588 -140 -670 -3 -11 -18 -83 -35 -160 -16 -77
-39 -185 -51 -241 -26 -127 -23 -113 -60 -284 -39 -184 -69 -326 -74 -356 -3
-13 -7 -32 -10 -42 -3 -9 -7 -28 -10 -42 -7 -35 -67 -323 -70 -335 -2 -5 -6
-28 -11 -50 -4 -22 -9 -47 -11 -55 -6 -32 -117 -554 -154 -725 -21 -99 -41
-191 -44 -205 -4 -22 -13 -66 -31 -150 -12 -59 -57 -276 -60 -290 -13 -59 -66
-305 -75 -350 -6 -30 -22 -104 -35 -165 -14 -60 -27 -128 -31 -150 -3 -22 -8
-43 -10 -46 -2 -3 -6 -21 -9 -40 -3 -19 -10 -50 -15 -69 -5 -19 -12 -53 -15
-75 -4 -22 -12 -65 -20 -95 -7 -30 -21 -91 -29 -135 -22 -107 -20 -100 -56
-265 -17 -80 -33 -154 -36 -165 -6 -33 -61 -293 -83 -399 -12 -54 -23 -108
-25 -120 -12 -61 -169 -800 -182 -851 -7 -33 -14 -68 -14 -77 0 -17 147 -18
2945 -18 l2945 0 0 3500 0 3500 -2210 0 c-1215 0 -2209 -3 -2208 -7z"/>
</g>
</svg>
